<?xml version="1.0" encoding="utf-8"?>
<!-- Generator: Adobe Illustrator 23.0.1, SVG Export Plug-In . SVG Version: 6.00 Build 0)  -->
<svg version="1.1" id="eee8be0a-91f9-44a9-be85-785d21b6496e"
	 xmlns="http://www.w3.org/2000/svg" xmlns:xlink="http://www.w3.org/1999/xlink" x="0px" y="0px" viewBox="0 0 268.1 70"
	 style="enable-background:new 0 0 268.1 70;" xml:space="preserve">
<style type="text/css">
	.st0{fill:#009CDE;}
</style>
<title>logo</title>
<path class="st0" d="M118.7,23.4c0.7,0,1.4,0.1,2.2,0.2v-7.6c-0.5-0.1-1.1-0.2-1.6-0.2c-1.3,0-2.7,0.5-3.8,1.2
	c-1.3,0.9-2.3,2.3-3,4.2h-0.2l-0.3-4.8h-6.7c0.1,2,0.2,4.9,0.2,8.5l0,17.4h7.8V29.3c0-0.6,0-1.2,0.2-1.8
	C114,24.8,115.7,23.4,118.7,23.4"/>
<path class="st0" d="M130.3,26.5c0.1-1.3,0.6-2.5,1.3-3.5c0.7-1.2,2-1.8,3.6-1.8c0.8,0,1.6,0.1,2.3,0.5c0.5,0.4,0.9,0.9,1.3,1.4
	c0.3,0.5,0.5,1.1,0.7,1.7c0.1,0.6,0.1,1.1,0.2,1.7L130.3,26.5z M135.6,15.9c-4.3,0.1-7.5,1.6-9.5,4.4c-2,2.7-3.1,6-3.1,9.4
	c0.1,8.6,4.6,13,13.4,13.2c3.1,0.1,6.2-0.5,9.1-1.6l-1-5.5c-2.2,0.8-4.6,1.2-6.9,1.1c-1.7,0.1-3.3-0.4-4.8-1.3
	c-1.3-0.8-2.2-2.2-2.3-3.7l16.2,0.1c0.2-1.1,0.2-2.2,0.3-3.2c0.1-3.1-0.8-6.2-2.5-8.9C142.5,17.3,139.6,15.9,135.6,15.9"/>
<path class="st0" d="M169.4,35.8c-1.4,0.6-2.9,0.9-4.5,0.8c-1.8,0.1-3.5-0.6-4.8-1.9c-1.4-1.2-2.1-3-2.1-5.4c0-2.2,0.6-3.9,1.8-5.3
	c1.2-1.3,2.8-2,4.9-2c0.9,0,1.7,0.1,2.6,0.2c0.6,0.1,1.2,0.3,1.8,0.6l1.2-6c-1.9-0.7-3.9-1-5.9-1c-4.7,0.1-8.2,1.4-10.7,4
	c-2.5,2.6-3.7,5.8-3.7,9.7c0.2,8.7,4.6,13.1,13.3,13.3c3.1-0.1,5.4-0.5,7-1.3L169.4,35.8z"/>
<path class="st0" d="M181.8,35c-0.9-1.4-1.3-3.3-1.3-5.5c0-1.9,0.4-3.7,1.2-5.4c0.7-1.5,2.3-2.4,3.9-2.4c1.7-0.1,3.2,0.9,3.9,2.4
	c0.8,1.7,1.2,3.5,1.1,5.4c0,2.3-0.4,4.2-1.3,5.6c-0.7,1.4-2.2,2.2-3.7,2.2h-0.1C183.9,37.2,182.7,36.5,181.8,35 M185.5,43
	c3.4,0,6.6-1.2,9.1-3.4c2.6-2.2,4-5.7,4-10.4c0-4-1.2-7.2-3.5-9.6c-2.3-2.4-5.4-3.6-9.3-3.7c-4.1,0-7.3,1.3-9.7,3.7
	c-2.4,2.4-3.7,5.8-3.7,10c0,4.2,1.3,7.5,3.8,9.8C178.6,41.7,181.7,42.9,185.5,43L185.5,43z"/>
<path class="st0" d="M220.2,30.9c0,0.6,0,1.2-0.2,1.8c-0.2,1.1-0.7,2.1-1.6,2.8c-0.8,0.7-1.9,1.1-3,1.1c-1.5,0-3-0.7-3.9-2
	c-1-1.2-1.5-3-1.5-5.1c0-2.1,0.5-3.9,1.4-5.2c0.9-1.4,2.3-2.1,4-2.1c1.1,0,2.2,0.4,3.1,1.1c0.8,0.7,1.3,1.7,1.5,2.8
	c0.1,0.5,0.1,1,0.1,1.5L220.2,30.9z M228,4.8h-7.8v14h-0.1c-1.2-1.9-3.4-2.9-6.6-2.9c-3,0-5.9,1.3-7.9,3.6
	c-2.2,2.4-3.3,5.8-3.4,10.2c0,4,1.1,7.3,3.2,9.6c1.8,2.3,4.6,3.7,7.6,3.7c1.6,0,3.2-0.4,4.6-1.1c1.4-0.7,2.5-1.9,3.2-3.2h0.1
	l0.3,3.7h6.9c-0.1-2-0.2-4.6-0.2-7.7L228,4.8z"/>
<path class="st0" d="M240.4,26.5c0.1-1.3,0.6-2.5,1.3-3.5c0.7-1.2,2-1.8,3.6-1.8c0.8,0,1.6,0.1,2.3,0.5c0.5,0.4,0.9,0.9,1.3,1.4
	c0.3,0.5,0.5,1.1,0.7,1.7c0.1,0.6,0.1,1.1,0.2,1.7L240.4,26.5z M256.8,28.8c0.1-3.1-0.8-6.2-2.5-8.9c-1.7-2.6-4.6-4-8.7-4
	c-4.3,0.1-7.5,1.6-9.5,4.4c-2,2.7-3.1,6-3.1,9.4c0.1,8.6,4.6,13,13.4,13.2c3.1,0.1,6.2-0.5,9.1-1.6l-1-5.5c-2.2,0.8-4.6,1.2-6.9,1.1
	c-1.7,0.1-3.3-0.4-4.8-1.3c-1.3-0.8-2.2-2.2-2.3-3.7l16.2,0.1C256.7,31,256.8,29.9,256.8,28.8"/>
<path class="st0" d="M84,12.9c1.1-0.2,2.1-0.3,3.2-0.3c4,0.1,6.1,1.8,6.1,5.2c-0.1,3.8-2.3,5.7-6.7,5.8c-0.9,0-1.7,0-2.6-0.2V12.9z
	 M84,29.6c0.9,0.2,1.8,0.2,2.7,0.2c4.8,0,8.5-1.3,11.3-3.8c2.1-2.1,3.1-4.9,3.1-8.5c-0.1-3.6-1.3-6.3-3.6-8.2
	c-2.3-1.9-5.8-2.9-10.6-2.9c-4.7,0-8.2,0.3-10.6,0.7v35.2H84V29.6z"/>
<path class="st0" d="M78.4,51.9c-1.8,0-2.7,0.9-2.7,2.7v0.3c0,1.2,0.6,2.2,1.8,3s1.8,1.6,1.8,2.1v0.1c0,0.6-0.3,0.9-0.8,0.9l0,0
	c-0.5,0-0.8-0.3-0.8-0.9v-0.9h-1.9v0.9c0,1.8,0.9,2.7,2.7,2.7c1.8,0,2.7-0.9,2.7-2.7V60c0-1.2-0.6-2.2-1.8-3.1
	c-1.2-0.8-1.8-1.6-1.8-2.2v-0.1c0-0.6,0.3-0.9,0.8-0.9s0.8,0.3,0.8,0.9v0.8h1.9v-0.8C81.1,52.8,80.2,51.9,78.4,51.9"/>
<path class="st0" d="M86.1,60.1c0,0.6-0.3,0.9-0.8,0.9c-0.6,0-0.8-0.3-0.8-0.9v-5.5c0-0.6,0.3-0.9,0.8-0.9l0,0
	c0.5,0,0.8,0.3,0.8,0.9L86.1,60.1z M85.3,51.9c-1.8,0-2.7,0.9-2.7,2.7v5.5c0,1.8,0.9,2.8,2.7,2.7c1.8,0,2.7-0.9,2.7-2.7v-5.5
	C88,52.8,87.1,51.9,85.3,51.9"/>
<rect x="89.5" y="48.8" class="st0" width="1.9" height="13.8"/>
<path class="st0" d="M96.4,60.1c0,0.6-0.3,0.9-0.8,0.9s-0.8-0.3-0.8-0.9V52h-1.9v8.1c0,1.8,0.9,2.8,2.7,2.7c1.8,0,2.7-0.9,2.7-2.7
	V52h-1.9L96.4,60.1z"/>
<path class="st0" d="M102.4,51.9c-1.8,0-2.7,0.9-2.7,2.8v5.5c0,1.6,0.7,2.5,2,2.7l-0.2,0.9h0.8c0-0.1,0.1-0.1,0.2-0.1l0,0
	c0.1,0,0.1,0,0.1,0.1v0.7c0,0.1,0,0.1-0.1,0.1c-0.1,0-0.1,0-0.1-0.1v-0.2h-0.8v0.2c0,0.4,0.3,0.6,0.8,0.6h0.1c0.1,0,0.2,0,0.2,0
	c0.5,0,0.7-0.2,0.7-0.6v-0.7c0-0.2-0.1-0.4-0.2-0.5c-0.1-0.1-0.2-0.1-0.4-0.1c-0.2,0-0.3,0.1-0.5,0.1l0.1-0.4c1.8,0,2.7-0.9,2.7-2.7
	v-0.9h-1.9v0.9c0,0.6-0.3,0.9-0.8,0.9l0,0c-0.5,0-0.8-0.3-0.8-0.9v-5.5c0-0.6,0.3-0.9,0.8-0.9c0.6,0,0.8,0.3,0.8,0.9v0.8h1.9v-0.8
	C105.2,52.8,104.3,51.9,102.4,51.9"/>
<path class="st0" d="M108.2,50.4c0.1-0.2,0.2-0.4,0.4-0.4h0c0.2,0.1,0.4,0.2,0.5,0.3c0.3,0.2,0.7,0.4,1.1,0.4h0
	c0.4,0,0.8-0.3,1.1-0.7l0.3-0.5l-0.9-0.5l-0.3,0.4c-0.1,0.1-0.2,0.2-0.3,0.2c-0.2,0-0.4-0.1-0.6-0.2c-0.3-0.2-0.7-0.4-1.2-0.4h0
	c-0.5,0-0.9,0.3-1.2,0.9l-0.2,0.5l0.9,0.5L108.2,50.4z"/>
<path class="st0" d="M110.1,60.1c0,0.6-0.3,0.9-0.8,0.9s-0.8-0.3-0.8-0.9v-5.5c0-0.6,0.3-0.9,0.8-0.9l0,0c0.5,0,0.8,0.3,0.8,0.9
	L110.1,60.1z M109.3,51.9c-1.8,0-2.7,0.9-2.7,2.7v5.5c0,1.8,0.9,2.8,2.7,2.7c1.8,0,2.7-0.9,2.7-2.7v-5.5
	C112,52.8,111.1,51.9,109.3,51.9"/>
<path class="st0" d="M117,56.4h-1.6v-1.8c0-0.6,0.3-0.9,0.8-0.9s0.8,0.3,0.8,0.9L117,56.4z M116.2,51.9c-1.8,0-2.7,0.9-2.7,2.8v5.5
	c0,1.8,0.9,2.7,2.7,2.7c1.8,0,2.7-0.9,2.7-2.7v-0.9H117v0.9c0,0.6-0.3,0.9-0.8,0.9l0,0c-0.5,0-0.8-0.3-0.8-0.9V58h3.5v-3.4
	C118.9,52.8,118,51.8,116.2,51.9"/>
<path class="st0" d="M123.1,51.9c-1.8,0-2.7,0.9-2.7,2.7v0.3c0,1.2,0.6,2.2,1.8,3c1.2,0.8,1.8,1.6,1.8,2.1v0.1
	c0,0.6-0.3,0.9-0.8,0.9l0,0c-0.5,0-0.8-0.3-0.8-0.9v-0.9h-1.9v0.9c0,1.8,0.9,2.7,2.7,2.7c1.8,0,2.7-0.9,2.7-2.7V60
	c0-1.2-0.6-2.2-1.8-3.1c-1.2-0.8-1.8-1.6-1.8-2.2v-0.1c0-0.6,0.3-0.9,0.8-0.9s0.8,0.3,0.8,0.9v0.8h1.9v-0.8
	C125.8,52.8,124.9,51.9,123.1,51.9"/>
<path class="st0" d="M134.1,56.4h-1.6v-1.8c0-0.6,0.3-0.9,0.8-0.9c0.5,0,0.8,0.3,0.8,0.9L134.1,56.4z M133.3,51.9
	c-1.8,0-2.7,0.9-2.7,2.8v5.5c0,1.8,0.9,2.7,2.7,2.7s2.7-0.9,2.7-2.7v-0.9h-1.9v0.9c0,0.6-0.3,0.9-0.8,0.9l0,0
	c-0.5,0-0.8-0.3-0.8-0.9V58h3.5v-3.4C136,52.8,135.1,51.8,133.3,51.9"/>
<path class="st0" d="M144,51.9c-0.7,0.1-1.3,0.6-1.5,1.3l0,0c-0.2-0.8-0.9-1.3-1.8-1.3c-0.7,0.1-1.3,0.6-1.5,1.3l-0.1-0.3l-0.3-0.8
	h-1.3v10.6h1.9v-8.1c0-0.6,0.2-0.9,0.7-0.9c0.5,0,0.8,0.3,0.8,0.9v8.1h1.9v-8.1c0-0.2,0-0.3,0-0.5c0.1-0.3,0.4-0.4,0.6-0.4
	c0.5,0,0.8,0.3,0.8,0.9v8h1.9v-8.1C146,52.8,145.3,51.9,144,51.9"/>
<path class="st0" d="M154.8,56.4h-1.6v-1.8c0-0.6,0.3-0.9,0.8-0.9c0.5,0,0.8,0.3,0.8,0.9L154.8,56.4z M154,51.9
	c-1.8,0-2.7,0.9-2.7,2.8v5.5c0,1.8,0.9,2.7,2.7,2.7s2.7-0.9,2.7-2.7v-0.9h-1.9v0.9c0,0.6-0.3,0.9-0.8,0.9l0,0
	c-0.5,0-0.8-0.3-0.8-0.9V58h3.5v-3.4C156.7,52.8,155.8,51.8,154,51.9"/>
<rect x="157.8" y="55.5" class="st0" width="4.6" height="1.6"/>
<path class="st0" d="M166.1,51.9c-1.8,0-2.7,0.9-2.7,2.8v5.5c0,1.8,0.9,2.7,2.7,2.7c1.8,0,2.7-0.9,2.7-2.7v-0.9h-1.9v0.9
	c0,0.6-0.3,0.9-0.8,0.9l0,0c-0.5,0-0.8-0.3-0.8-0.9v-5.5c0-0.6,0.3-0.9,0.8-0.9c0.5,0,0.8,0.3,0.8,0.9v0.8h1.9v-0.8
	C168.8,52.8,167.9,51.9,166.1,51.9"/>
<path class="st0" d="M173.8,60.1c0,0.6-0.3,0.9-0.8,0.9c-0.6,0-0.8-0.3-0.8-0.9v-5.5c0-0.6,0.3-0.9,0.8-0.9l0,0
	c0.5,0,0.8,0.3,0.8,0.9L173.8,60.1z M173,51.9c-1.8,0-2.7,0.9-2.7,2.7v5.5c0,1.8,0.9,2.8,2.7,2.7c1.8,0,2.7-0.9,2.7-2.7v-5.5
	C175.7,52.8,174.8,51.9,173,51.9"/>
<path class="st0" d="M183.7,51.9c-0.7,0.1-1.3,0.6-1.5,1.3l0,0c-0.2-0.8-0.9-1.3-1.8-1.3c-0.7,0.1-1.3,0.6-1.5,1.3l-0.1-0.3
	l-0.3-0.8h-1.3v10.6h1.9v-8.1c0-0.6,0.2-0.9,0.7-0.9c0.5,0,0.8,0.3,0.8,0.9v8.1h1.9v-8.1c0-0.2,0-0.3,0-0.5c0.1-0.3,0.4-0.5,0.6-0.4
	c0.5,0,0.8,0.3,0.8,0.9v8h1.9v-8.1C185.7,52.8,185,51.9,183.7,51.9"/>
<path class="st0" d="M194.1,51.9c-0.7,0.1-1.3,0.6-1.5,1.3l0,0c-0.2-0.8-1-1.3-1.8-1.3c-0.7,0.1-1.3,0.6-1.5,1.3l-0.1-0.3l-0.3-0.8
	h-1.3v10.6h1.9v-8.1c0-0.6,0.2-0.9,0.7-0.9c0.5,0,0.8,0.3,0.8,0.9v8.1h1.9v-8.1c0-0.2,0-0.3,0-0.5c0.1-0.3,0.4-0.4,0.6-0.4
	c0.5,0,0.8,0.3,0.8,0.9v8h1.9v-8.1C196.1,52.8,195.4,51.9,194.1,51.9"/>
<path class="st0" d="M201.5,56.4h-1.6v-1.8c0-0.6,0.3-0.9,0.8-0.9c0.6,0,0.8,0.3,0.8,0.9L201.5,56.4z M200.6,51.9
	c-1.8,0-2.7,0.9-2.7,2.8v5.5c0,1.8,0.9,2.7,2.7,2.7s2.7-0.9,2.7-2.7v-0.9h-1.9v0.9c0,0.6-0.3,0.9-0.8,0.9l0,0
	c-0.5,0-0.8-0.3-0.8-0.9V58h3.5v-3.4C203.3,52.8,202.4,51.8,200.6,51.9"/>
<path class="st0" d="M206.6,53.1l-0.4-1h-1.3v10.6h1.9v-8.1c0-0.6,0.3-0.9,0.8-0.9h1.3v-1.8c-0.1,0-0.3,0-0.4,0
	C207.4,51.9,206.8,52.3,206.6,53.1"/>
<path class="st0" d="M212.3,51.9c-1.8,0-2.7,0.9-2.7,2.8v5.5c0,1.8,0.9,2.7,2.7,2.7c1.8,0,2.7-0.9,2.7-2.7v-0.9h-1.9v0.9
	c0,0.6-0.3,0.9-0.8,0.9l0,0c-0.5,0-0.8-0.3-0.8-0.9v-5.5c0-0.6,0.3-0.9,0.8-0.9c0.6,0,0.8,0.3,0.8,0.9v0.8h1.9v-0.8
	C215.1,52.8,214.2,51.9,212.3,51.9"/>
<path class="st0" d="M220.1,56.4h-1.6v-1.8c0-0.6,0.3-0.9,0.8-0.9s0.8,0.3,0.8,0.9L220.1,56.4z M219.2,51.9c-1.8,0-2.7,0.9-2.7,2.8
	v5.5c0,1.8,0.9,2.7,2.7,2.7c1.8,0,2.7-0.9,2.7-2.7v-0.9H220v0.9c0,0.6-0.3,0.9-0.8,0.9l0,0c-0.5,0-0.8-0.3-0.8-0.9V58h3.5v-3.4
	C221.9,52.8,221,51.8,219.2,51.9"/>
<path class="st0" d="M54.4,30.8L54.4,30.8l-2,7.6l-0.4,1.5L52,40.3l0,0c0,0.1-0.1,0.2-0.1,0.2c-0.7,1.8-2.3,3.2-4.2,3.5l-0.2,0l0,0
	L47,44l-0.4,0l-5.3,0.4l-2.5,0.2L33.4,45L31,45.2l-3.8,0.3l0,0l-0.6,0h-0.1c-0.2,0-0.5,0-0.7,0h-0.2c-1.7-0.3-3.1-1.3-3.9-2.8
	c-0.1-0.2-0.2-0.4-0.3-0.7l-0.2-0.7l-0.2-0.7L19,33.3l-0.7-2.2L17,26.5l-0.5-1.6c-2.3-0.3-4-2.5-3.6-4.8c0.3-2.1,2.1-3.7,4.2-3.7
	h0.3c2.3,0.1,4.1,2.2,4,4.5c-0.1,1.3-0.7,2.4-1.8,3.2l0.6,2.2l1.3,4.6l0.6,2.2l0.8,2.9l1.3,4.3l0,0c0.4,1.2,1.4,1.9,2.7,1.9h0.1
	c0.1,0,0.1,0,0.2,0l3.8-0.3l0.4,0l2-0.1l5.3-0.4l2.5-0.2l0.8-0.1l4.6-0.3l0,0c1.2-0.2,2.2-1.1,2.4-2.3h0l1.1-4.1l0.9-3.4l0.3-1
	c0.2-0.9,1.1-1.4,2-1.1c0.7,0.2,1.2,0.8,1.2,1.6C54.5,30.5,54.5,30.6,54.4,30.8 M48.5,53.6L48.5,53.6c-0.7,0.8-1.5,1.3-2.5,1.5
	c-0.4,0.1-0.8,0.1-1.2,0.1h-0.1c-2.7,0-4.9-2.3-4.8-5c0-1.1,0.4-2.2,1.1-3.1l0,0c1.5-1.8,4-2.3,6.1-1.2l0,0c1.3,0.7,2.2,1.9,2.5,3.3
	c0.1,0.3,0.1,0.7,0.1,1.1C49.8,51.5,49.3,52.7,48.5,53.6 M33,54.9c-0.7,0.7-1.6,1.2-2.5,1.4c-0.2,0-0.4,0.1-0.6,0.1h-0.2h-0.3
	c-0.1,0-0.3,0-0.4,0c-1.5-0.1-2.9-1-3.8-2.3l0,0c-1.4-2.3-0.7-5.3,1.6-6.7c0.8-0.5,1.7-0.7,2.6-0.7c2.7,0,4.9,2.2,4.9,4.9
	c0,0,0,0,0,0C34.3,52.8,33.9,54,33,54.9 M26.2,33.2c0-0.3,0.2-0.5,0.5-0.5l4.3-0.3c0.3,0,0.5,0.2,0.5,0.5c0,0,0,0,0,0.1l-0.3,6.4
	c0,0.3-0.2,0.5-0.5,0.5l-4.3,0.3c-0.3,0-0.5-0.2-0.5-0.5c0,0,0,0,0-0.1L26.2,33.2z M39.4,30.2L39,38.8c0,0.3-0.2,0.5-0.5,0.5
	l-4.3,0.3c-0.3,0-0.5-0.2-0.5-0.5c0,0,0,0,0-0.1l0.4-8.7c0-0.3,0.2-0.5,0.5-0.5l4.3-0.3C39.2,29.6,39.4,29.8,39.4,30.2
	C39.4,30.1,39.4,30.1,39.4,30.2 M47.4,24.9l-0.6,13.3c0,0.3-0.2,0.5-0.5,0.5L42,39.1c-0.3,0-0.5-0.2-0.5-0.5c0,0,0,0,0,0l0.6-13.3
	c0-0.3,0.2-0.5,0.5-0.5l4.3-0.3C47.2,24.4,47.4,24.6,47.4,24.9C47.4,24.9,47.4,24.9,47.4,24.9 M26.3,27.2c7.3,0,13-2.7,16.3-9.5
	c-0.9,0.4-1.8,0.7-2.8,1.1c-0.3-0.7-0.6-1.5-1-2.3c2.7-1.1,5.2-2.1,7.9-3.2c0.4,2.7,0.8,5.4,1.3,8.1c-0.8,0.1-1.6,0.3-2.4,0.4
	c-0.2-1-0.3-2-0.5-3c-1.8,3.4-4.3,6.3-7.7,8.2c-3.4,1.8-7.2,2.7-11,2.6V27.2z M33.7,1.2C15.1,1.2,0,16.3,0,34.9s15.1,33.7,33.7,33.7
	c18.6,0,33.7-15.1,33.7-33.7C67.4,16.3,52.3,1.2,33.7,1.2C33.7,1.2,33.7,1.2,33.7,1.2"/>
<path class="st0" d="M262.2,6.1h0.5c0.6,0,1.2-0.2,1.2-0.7s-0.3-0.8-1.1-0.8c-0.2,0-0.4,0-0.6,0.1V6.1z M262.2,8.9H261v-5
	c0.6-0.1,1.3-0.2,1.9-0.2c0.6,0,1.2,0.1,1.7,0.4c0.3,0.3,0.5,0.7,0.5,1.1c0,0.6-0.5,1.1-1,1.2v0.1c0.5,0.2,0.9,0.7,0.9,1.2
	c0,0.4,0.2,0.9,0.4,1.3h-1.3c-0.2-0.4-0.3-0.8-0.4-1.2c-0.1-0.5-0.4-0.8-1-0.8h-0.5L262.2,8.9z M259.1,6.3c-0.1,2.1,1.6,3.9,3.7,4
	c0.1,0,0.1,0,0.2,0c2.1,0,3.8-1.7,3.8-3.8c0,0,0-0.1,0-0.1c0-2.2-1.6-4-3.8-4C260.9,2.3,259.1,4.1,259.1,6.3
	C259.1,6.2,259.1,6.3,259.1,6.3 M268.1,6.3c0.1,2.8-2.2,5.2-5,5.3s-5.2-2.2-5.3-5s2.2-5.2,5-5.3c0.1,0,0.1,0,0.2,0
	C265.8,1.3,268,3.5,268.1,6.3C268.1,6.2,268.1,6.3,268.1,6.3"/>
</svg>
